<svg width="24" height="24" viewBox="0 0 24 24" fill="none" xmlns="http://www.w3.org/2000/svg">
<path d="M17.4346 14.3076C18.1359 13.6292 19.2655 13.6292 19.9668 14.3076C20.6774 14.9951 20.6774 16.1163 19.9668 16.8037L16.8301 19.8389C16.3906 20.2639 15.7981 20.4999 15.1836 20.5H14.1064C13.8304 20.4999 13.6064 20.2761 13.6064 20V18.959C13.6064 18.3495 13.8567 17.7676 14.2969 17.3418L17.4346 14.3076ZM18.2002 7.55566C18.2002 6.8655 17.6176 6.27747 16.8633 6.27734H5.83789C5.08344 6.27734 4.5 6.86543 4.5 7.55566V8.83301H18.2002V7.55566ZM14.6064 19.5H15.1836C15.5433 19.4999 15.8852 19.3615 16.1348 19.1201L19.2715 16.085C19.5758 15.7906 19.5758 15.3208 19.2715 15.0264C18.9579 14.723 18.4435 14.723 18.1299 15.0264L14.9922 18.0605C14.7431 18.3016 14.6064 18.6256 14.6064 18.959V19.5ZM19.2002 11.1113C19.2001 11.3874 18.9763 11.6113 18.7002 11.6113C18.4243 11.6111 18.2003 11.3872 18.2002 11.1113V9.83301H4.5V17.333C4.5 18.0233 5.08344 18.6113 5.83789 18.6113H10.4316L10.5322 18.6211C10.7601 18.6677 10.9316 18.8697 10.9316 19.1113C10.9315 19.3529 10.76 19.554 10.5322 19.6006L10.4316 19.6113H5.83789C4.56261 19.6113 3.5 18.6065 3.5 17.333V7.55566C3.5 6.28222 4.5626 5.27734 5.83789 5.27734H7.1748V4C7.1748 3.72397 7.39882 3.50019 7.6748 3.5C7.95095 3.5 8.1748 3.72386 8.1748 4V5.27734H14.5254V4C14.5254 3.72388 14.7493 3.50004 15.0254 3.5C15.3015 3.5 15.5254 3.72386 15.5254 4V5.27734H16.8633C18.1385 5.27747 19.2002 6.2823 19.2002 7.55566V11.1113Z" fill="black"/>
</svg>
