<svg width="40" height="40" viewBox="0 0 40 40" fill="none" xmlns="http://www.w3.org/2000/svg">
<path d="M31.4697 7.46973C31.7626 7.17684 32.2374 7.17684 32.5303 7.46973C32.8232 7.76262 32.8232 8.23738 32.5303 8.53028L21.0605 20L32.5303 31.4697L32.582 31.5264C32.8223 31.821 32.8049 32.2557 32.5303 32.5303C32.2557 32.8049 31.8209 32.8223 31.5264 32.582L31.4697 32.5303L20 21.0605L8.53027 32.5303C8.23738 32.8232 7.76261 32.8232 7.46972 32.5303C7.17683 32.2374 7.17683 31.7626 7.46972 31.4697L18.9394 20L7.46972 8.53028L7.41796 8.47364C7.17765 8.17905 7.19512 7.74433 7.46972 7.46973C7.74433 7.19513 8.17905 7.17766 8.47363 7.41797L8.53027 7.46973L20 18.9395L31.4697 7.46973Z" fill="black"/>
</svg>
