<svg width="24" height="24" viewBox="0 0 24 24" fill="none" xmlns="http://www.w3.org/2000/svg">
<path d="M19.999 5.5C20.275 5.50019 20.499 5.72398 20.499 6V9.4043C20.4994 9.41212 20.499 9.41992 20.499 9.42773V18C20.499 18.276 20.275 18.4998 19.999 18.5H4.00099C3.72499 18.4998 3.50099 18.276 3.50099 18V9.42773C3.50099 9.41992 3.50062 9.41212 3.50099 9.4043V6C3.50099 5.72396 3.72499 5.50017 4.00099 5.5H19.999ZM19.499 10.3652C17.3373 11.715 14.7629 12.5 12 12.5C9.23716 12.5 6.6627 11.715 4.50099 10.3652V17.5H19.499V10.3652ZM4.50099 9.16797C6.60941 10.6334 9.19786 11.5 12 11.5C14.8022 11.5 17.3906 10.6334 19.499 9.16797V6.5H4.50099V9.16797Z" fill="black"/>
</svg>
